HIERARCHY
ROOT Hips
{
	OFFSET -0.001795 -0.223333 0.028219
	CHANNELS 6 Xposition Yposition Zposition Zrotation Yrotation Xrotation 
	JOINT LeftUpLeg
	{
		OFFSET 0.069520 -0.091406 -0.006815
		CHANNELS 3 Zrotation Yrotation Xrotation
		JOINT LeftLeg
		{
			OFFSET 0.034277 -0.375199 -0.004496
			CHANNELS 3 Zrotation Yrotation Xrotation
			JOINT LeftFoot
			{
				OFFSET -0.013596 -0.397961 -0.043693
				CHANNELS 3 Zrotation Yrotation Xrotation
				JOINT LeftToe
				{
					OFFSET 0.026358 -0.055791 0.119288
					CHANNELS 3 Zrotation Yrotation Xrotation
					End Site
					{
						OFFSET 0.000000 0.000000 0.000000
					}
				}
			}
		}
	}
	JOINT RightUpLeg
	{
		OFFSET -0.067670 -0.090522 -0.004320
		CHANNELS 3 Zrotation Yrotation Xrotation
		JOINT RightLeg
		{
			OFFSET -0.038290 -0.382569 -0.008850
			CHANNELS 3 Zrotation Yrotation Xrotation
			JOINT RightFoot
			{
				OFFSET 0.015774 -0.398415 -0.042312
				CHANNELS 3 Zrotation Yrotation Xrotation
				JOINT RightToe
				{
					OFFSET -0.025372 -0.048144 0.123348
					CHANNELS 3 Zrotation Yrotation Xrotation
					End Site
					{
						OFFSET 0.000000 0.000000 0.000000
					}
				}
			}
		}
	}
	JOINT Spine
	{
		OFFSET -0.002533 0.108963 -0.026696
		CHANNELS 3 Zrotation Yrotation Xrotation
		JOINT Spine1
		{
			OFFSET 0.005487 0.135180 0.001092
			CHANNELS 3 Zrotation Yrotation Xrotation
			JOINT Spine2
			{
				OFFSET 0.001457 0.052922 0.025425
				CHANNELS 3 Zrotation Yrotation Xrotation
				JOINT Neck
				{
					OFFSET -0.002778 0.213870 -0.042857
					CHANNELS 3 Zrotation Yrotation Xrotation
					JOINT Head
					{
						OFFSET 0.005152 0.064970 0.051349
						CHANNELS 3 Zrotation Yrotation Xrotation
						End Site
						{
							OFFSET 0.000000 0.000000 0.000000
						}
					}
				}
				JOINT LeftShoulder
				{
					OFFSET 0.078845 0.121749 -0.034090
					CHANNELS 3 Zrotation Yrotation Xrotation
					JOINT LeftArm
					{
						OFFSET 0.090977 0.030469 -0.008868
						CHANNELS 3 Zrotation Yrotation Xrotation
						JOINT LeftForeArm
						{
							OFFSET 0.259612 -0.012772 -0.027456
							CHANNELS 3 Zrotation Yrotation Xrotation
							JOINT LeftHand
							{
								OFFSET 0.249234 0.008986 -0.001171
								CHANNELS 3 Zrotation Yrotation Xrotation
								End Site
								{
									OFFSET 0.000000 0.000000 0.000000
								}
							}
						}
					}
				}
				JOINT RightShoulder
				{
					OFFSET -0.081759 0.118833 -0.038615
					CHANNELS 3 Zrotation Yrotation Xrotation
					JOINT RightArm
					{
						OFFSET -0.096012 0.032551 -0.009143
						CHANNELS 3 Zrotation Yrotation Xrotation
						JOINT RightForeArm
						{
							OFFSET -0.253742 -0.013329 -0.021401
							CHANNELS 3 Zrotation Yrotation Xrotation
							JOINT RightHand
							{
								OFFSET -0.255298 0.007772 -0.005559
								CHANNELS 3 Zrotation Yrotation Xrotation
								End Site
								{
									OFFSET 0.000000 0.000000 0.000000
								}
							}
						}
					}
				}
			}
		}
	}
}
MOTION
Frames: 8
Frame Time: 0.050000
0.363785 0.935808 0.131347 -177.644052 17.836629 -174.960476 4.552822 -5.035768 -6.127920 0.017222 -4.003385 3.086785 42.131327 -23.000588 10.855062 0.000000 0.000000 0.000000 4.083285 -3.743047 2.998182 -0.190905 -4.042437 -6.681901 64.602190 -15.026325 -7.342718 0.000000 0.000000 0.000000 0.446141 -0.774887 -2.165322 -9.695803 -18.795506 5.488603 6.231883 21.699718 7.433624 -1.729659 -17.155999 -12.662282 0.000000 0.000000 0.000000 -10.974817 -24.350969 -80.613547 -6.970570 57.172724 7.400139 -57.710048 -6.041949 3.248177 0.000000 0.000000 0.000000 11.918656 -6.820899 62.628764 -15.849102 45.895054 -6.375951 -115.137611 21.085563 -4.687108 0.000000 0.000000 0.000000 
0.362319 0.936132 0.132237 -177.534155 17.183498 -174.375002 4.308628 -4.924667 -6.629967 0.945966 -3.684283 2.865946 40.869883 -23.492613 8.861689 0.000000 0.000000 0.000000 4.802450 -3.394837 2.948405 -0.961208 -3.596318 -6.885317 72.152956 -15.675240 -9.263250 0.000000 0.000000 0.000000 0.035603 -1.059527 -3.312791 -12.369870 -21.127872 8.495039 8.564856 24.523220 6.319968 -2.351372 -17.457623 -12.523712 0.000000 0.000000 0.000000 -11.032548 -23.856602 -82.336335 -2.305776 57.229593 10.351705 -59.472627 -3.566433 2.671336 0.000000 0.000000 0.000000 11.586542 -6.386668 63.697943 -15.588102 44.913570 -6.098675 -115.634248 19.940539 -3.242626 0.000000 0.000000 0.000000 
0.360823 0.935787 0.133918 -177.657108 16.551997 -174.357758 4.599963 -5.173619 -6.327102 0.962780 -3.672539 2.407071 39.413366 -23.545826 7.983829 0.000000 0.000000 0.000000 5.065825 -3.287489 2.849769 -1.693595 -3.218197 -6.756051 78.771909 -15.979503 -11.348178 0.000000 0.000000 0.000000 -0.280880 -1.067742 -3.165723 -12.102808 -21.010417 7.959960 8.709289 24.333935 6.571089 -2.294268 -17.949966 -12.936309 0.000000 0.000000 0.000000 -9.903518 -23.296803 -84.895088 0.776766 58.055254 12.171443 -59.933886 -1.418016 1.545037 0.000000 0.000000 0.000000 10.285152 -6.865836 65.631366 -16.841577 46.303293 -6.331347 -115.392722 17.100055 2.401244 0.000000 0.000000 0.000000 
0.359061 0.936150 0.135961 -177.626768 16.062515 -174.211762 4.712585 -5.280581 -6.185339 1.454083 -3.463694 2.106992 38.247439 -23.833045 6.885263 0.000000 0.000000 0.000000 5.174120 -3.235218 2.656687 -2.243171 -2.945059 -6.827702 82.735888 -16.062635 -12.751320 0.000000 0.000000 0.000000 -0.654275 -1.157293 -3.274544 -11.404460 -20.531740 7.118613 8.732903 23.506134 7.362518 -2.507819 -18.306469 -13.352994 0.000000 0.000000 0.000000 -8.957302 -22.788035 -86.903914 3.546666 58.935005 13.849282 -59.589015 0.377365 0.375678 0.000000 0.000000 0.000000 8.997077 -7.086204 67.274701 -18.206428 47.091386 -6.474092 -115.162195 14.690149 7.252080 0.000000 0.000000 0.000000 
0.357241 0.935613 0.138200 -177.712374 16.512240 -174.297628 4.477197 -5.052372 -6.593031 1.563550 -3.424112 3.124843 38.662767 -23.631732 5.950511 0.000000 0.000000 0.000000 5.504200 -3.006120 2.460989 -2.697289 -2.702265 -6.587181 82.059213 -16.074468 -12.562309 0.000000 0.000000 0.000000 -0.644281 -1.178558 -3.384190 -12.078196 -20.386002 7.150692 9.093300 23.846991 7.152027 -1.773055 -17.755243 -13.736802 0.000000 0.000000 0.000000 -8.964677 -23.034541 -86.304516 3.092205 58.392313 13.361559 -58.150801 0.383264 0.207085 0.000000 0.000000 0.000000 8.611408 -6.474549 67.772737 -19.989629 46.967549 -6.992886 -113.048637 14.167325 7.221510 0.000000 0.000000 0.000000 
0.355606 0.936016 0.140373 -177.733738 17.514873 -174.421416 4.116849 -4.747764 -6.664182 2.002360 -3.241575 3.540691 36.885370 -23.125767 5.289183 0.000000 0.000000 0.000000 5.178869 -3.126402 2.579453 -2.503682 -2.740407 -6.478001 79.841019 -15.851532 -11.040587 0.000000 0.000000 0.000000 -0.631994 -1.242414 -3.579008 -11.921516 -19.318519 6.159044 9.186219 23.254337 8.029363 -0.987477 -17.287005 -13.820280 0.000000 0.000000 0.000000 -9.083833 -22.709310 -85.810439 2.661757 58.832260 13.029378 -56.726816 0.237727 -0.003243 0.000000 0.000000 0.000000 8.430058 -6.047278 67.759948 -22.965772 46.694904 -7.971616 -110.580575 12.502941 8.643528 0.000000 0.000000 0.000000 
0.354285 0.936031 0.142318 -177.713000 18.010512 -174.357277 4.110089 -4.714667 -6.629080 1.911998 -3.241738 3.410714 35.057419 -22.731309 5.334365 0.000000 0.000000 0.000000 5.154839 -3.141921 2.774084 -2.778307 -2.505711 -6.741801 79.832431 -15.940247 -10.568440 0.000000 0.000000 0.000000 -0.269361 -1.264024 -3.858734 -12.355846 -19.107005 6.204839 9.286385 23.424985 8.110577 -0.162683 -16.455847 -14.342430 0.000000 0.000000 0.000000 -9.375127 -22.687473 -85.358531 2.059945 58.581962 12.646065 -55.209922 1.115646 -0.526720 0.000000 0.000000 0.000000 7.929868 -5.433950 67.504243 -24.797337 46.403974 -8.347890 -109.782711 10.714634 11.180329 0.000000 0.000000 0.000000 
0.353192 0.936571 0.144064 -177.958758 17.679473 -174.321570 4.041836 -4.729478 -6.426152 1.455389 -3.409646 3.071489 32.691653 -22.762473 5.579970 0.000000 0.000000 0.000000 5.467610 -3.042379 2.865213 -3.532644 -2.116602 -6.972025 82.085208 -15.888710 -12.029241 0.000000 0.000000 0.000000 -0.453309 -1.417834 -4.361268 -12.823875 -19.495745 6.759670 9.672043 23.769015 8.183164 0.426591 -16.347409 -14.534472 0.000000 0.000000 0.000000 -9.493911 -22.545572 -86.614398 4.904382 58.644560 14.703580 -52.374796 3.197954 -1.440702 0.000000 0.000000 0.000000 7.029197 -5.429521 67.786590 -27.208952 46.056199 -8.759128 -109.598993 8.541073 14.925771 0.000000 0.000000 0.000000 
